<?xml version="1.0" encoding="UTF-8" standalone="no"?>
<!-- Created with Inkscape (http://www.inkscape.org/) -->

<svg
   xmlns:dc="http://purl.org/dc/elements/1.1/"
   xmlns:cc="http://creativecommons.org/ns#"
   xmlns:rdf="http://www.w3.org/1999/02/22-rdf-syntax-ns#"
   xmlns:svg="http://www.w3.org/2000/svg"
   xmlns="http://www.w3.org/2000/svg"
   xmlns:sodipodi="http://sodipodi.sourceforge.net/DTD/sodipodi-0.dtd"
   xmlns:inkscape="http://www.inkscape.org/namespaces/inkscape"
   width="37.063335mm"
   height="38.26482mm"
   viewBox="0 0 37.063335 38.26482"
   version="1.1"
   id="svg8"
   sodipodi:docname="screw_c.svg"
   inkscape:version="0.92.5 (2060ec1f9f, 2020-04-08)">
  <defs
     id="defs2">
    <clipPath
       id="clip0">
      <rect
         id="rect10"
         height="160"
         width="151"
         y="11"
         x="3" />
    </clipPath>
  </defs>
  <sodipodi:namedview
     id="base"
     pagecolor="#ffffff"
     bordercolor="#666666"
     borderopacity="1.0"
     inkscape:pageopacity="0.39215686"
     inkscape:pageshadow="2"
     inkscape:zoom="3.959798"
     inkscape:cx="50.517161"
     inkscape:cy="71.816274"
     inkscape:document-units="mm"
     inkscape:current-layer="g95"
     showgrid="false"
     inkscape:window-width="1848"
     inkscape:window-height="1016"
     inkscape:window-x="72"
     inkscape:window-y="27"
     inkscape:window-maximized="1" />
  <metadata
     id="metadata5">
    <rdf:RDF>
      <cc:Work
         rdf:about="">
        <dc:format>image/svg+xml</dc:format>
        <dc:type
           rdf:resource="http://purl.org/dc/dcmitype/StillImage" />
        <dc:title></dc:title>
      </cc:Work>
    </rdf:RDF>
  </metadata>
  <g
     inkscape:label="Laag 1"
     inkscape:groupmode="layer"
     id="layer1"
     transform="translate(-86.545713,-122.1414)">
    <g
       id="g95"
       transform="matrix(0.26458333,0,0,0.26458333,82.973812,117.27797)"
       clip-path="url(#clip0)">
      <path
         id="path15"
         d="m 108.997,112.827 0.032,-0.196 0.589,-2.424 0.648,0.158 -0.586,2.41 0.005,-0.026 -0.03,0.184 z m 1.094,-4.563 0.177,-0.726 0.631,-1.845 0.631,0.216 -0.627,1.83 0.009,-0.029 -0.173,0.712 z m 1.456,-4.463 0.306,-0.894 0.705,-1.602 0.61,0.269 -0.699,1.589 0.01,-0.026 -0.301,0.88 z m 1.817,-4.3262 0.337,-0.7658 0.905,-1.6261 0.583,0.3243 -0.898,1.6126 0.014,-0.0279 -0.331,0.7514 z m 2.215,-4.1393 0.267,-0.479 1.255,-1.7532 0.542,0.3881 -1.244,1.7378 0.02,-0.0319 -0.257,0.4626 z m 2.686,-3.8584 0.048,-0.0662 1.731,-1.9648 0.5,0.4407 -1.72,1.9522 0.021,-0.0264 -0.038,0.0526 z m 3.165,-3.5168 1.959,-1.81 0.452,0.4895 -1.958,1.81 z m 3.555,-3.0732 2.098,-1.5267 0.09,-0.0531 0.339,0.5741 -0.076,0.0449 0.026,-0.0175 -2.084,1.5173 z m 3.91,-2.5969 1.52,-0.8978 0.847,-0.3939 0.281,0.6045 -0.832,0.387 0.029,-0.0153 -1.506,0.8896 z m 4.18,-2.1352 0.884,-0.4109 1.627,-0.5711 0.221,0.6291 -1.612,0.5657 0.03,-0.0123 -0.869,0.404 z m 4.398,-1.6442 0.131,-0.0459 2.519,-0.5233 0.135,0.6528 -2.496,0.5187 0.042,-0.0118 -0.11,0.0386 z m 4.608,-0.976 2.611,-0.5424 0.136,0.6527 -2.611,0.5424 z m 4.643,-0.7659 2.663,-0.1485 0.037,0.6656 -2.663,0.1485 z m 4.66,-0.2599 2.161,-0.1206 0.037,0.6656 -2.161,0.1206 z m -42.058,36.371 4.372,-1.999 -5.217,7.265 -2.681,-8.533 z"
         inkscape:connector-curvature="0"
         style="fill:#00b050" />
      <path
         id="path17"
         d="m 47.0376,132.041 h 0.165 c 0.9945,0.017 1.7382,0.244 2.2312,0.682 0.493,0.438 0.7395,1.097 0.7395,1.978 0,0.351 -0.0497,0.751 -0.1491,1.199 -0.0995,0.449 -0.1492,0.749 -0.1492,0.902 0,0.292 0.1005,0.53 0.3015,0.714 0.201,0.184 0.5047,0.282 0.9109,0.295 v 0.52 c -0.4062,0.013 -0.7099,0.112 -0.9109,0.296 -0.201,0.184 -0.3015,0.422 -0.3015,0.714 0,0.152 0.0497,0.453 0.1492,0.901 0.0994,0.449 0.1491,0.849 0.1491,1.2 0,0.91 -0.2465,1.584 -0.7395,2.022 -0.493,0.438 -1.2367,0.665 -2.2312,0.682 h -0.165 v -0.483 h 0.0952 c 0.6136,0 1.0939,-0.159 1.4409,-0.479 0.347,-0.319 0.5205,-0.862 0.5205,-1.628 0,-0.296 -0.0423,-0.662 -0.1269,-1.098 -0.0846,-0.436 -0.127,-0.747 -0.127,-0.933 0,-0.36 0.1058,-0.655 0.3174,-0.886 0.2116,-0.23 0.4634,-0.401 0.7554,-0.511 v -0.114 c -0.292,-0.11 -0.5438,-0.28 -0.7554,-0.511 -0.2116,-0.231 -0.3174,-0.526 -0.3174,-0.885 0,-0.187 0.0424,-0.498 0.127,-0.934 0.0846,-0.435 0.1269,-0.801 0.1269,-1.098 0,-0.736 -0.1735,-1.264 -0.5205,-1.583 -0.347,-0.32 -0.8273,-0.48 -1.4409,-0.48 h -0.0952 z m -11.2797,0 h 0.165 v 0.482 h -0.0952 c -0.6136,0 -1.0939,0.16 -1.4409,0.48 -0.347,0.319 -0.5205,0.845 -0.5205,1.577 0,0.296 0.0423,0.662 0.1269,1.098 0.0847,0.436 0.127,0.747 0.127,0.933 0,0.36 -0.1058,0.655 -0.3174,0.886 -0.2116,0.23 -0.4634,0.401 -0.7554,0.511 v 0.114 c 0.292,0.11 0.5438,0.28 0.7554,0.511 0.2116,0.231 0.3174,0.526 0.3174,0.885 0,0.187 -0.0423,0.498 -0.127,0.934 -0.0846,0.435 -0.1269,0.802 -0.1269,1.098 0,0.77 0.1735,1.315 0.5205,1.634 0.347,0.32 0.8273,0.479 1.4409,0.479 h 0.0952 v 0.483 h -0.165 c -0.9945,-0.017 -1.7382,-0.244 -2.2312,-0.682 -0.493,-0.438 -0.7395,-1.114 -0.7395,-2.029 0,-0.351 0.0497,-0.751 0.1491,-1.199 0.0995,-0.449 0.1492,-0.749 0.1492,-0.902 0,-0.292 -0.1005,-0.53 -0.3015,-0.714 -0.201,-0.184 -0.5046,-0.282 -0.9109,-0.295 v -0.52 c 0.4063,-0.013 0.7099,-0.111 0.9109,-0.296 0.201,-0.184 0.3015,-0.422 0.3015,-0.714 0,-0.152 -0.0497,-0.452 -0.1492,-0.901 -0.0994,-0.449 -0.1491,-0.848 -0.1491,-1.2 0,-0.876 0.2465,-1.533 0.7395,-1.971 0.493,-0.438 1.2367,-0.665 2.2312,-0.682 z"
         inkscape:connector-curvature="0"
         style="fill-rule:evenodd" />
      <text
         id="text19"
         transform="translate(36.4301,142)"
         font-size="13"
         font-weight="400"
         style="font-weight:400;font-size:13px;font-family:'Cambria Math', 'Cambria Math_MSFontService', sans-serif">𝑤</text>
      <path
         id="path21"
         transform="matrix(1,0,0,-1,27.5001,151.352)"
         d="M 0.666624,-0.00750733 0.83764,15.1781 -0.495608,15.1931 -0.666624,0.00750733 Z M 2.8225,13.8223 0.246089,21.8519 -2.5105,13.8824 Z"
         inkscape:connector-curvature="0" />
      <path
         id="path23"
         d="m 26.856303,150.837 17.344,1.888 -0.1443,1.325 -17.344,-1.887 z m 16.2349,-0.245 7.6645,3.517 -8.2416,1.785 z"
         inkscape:connector-curvature="0" />
      <path
         id="path25"
         transform="matrix(-1,0,0,1,27.5369,151.5)"
         d="M 0.422591,-0.515617 9.30327,6.76283 8.45808,7.79406 -0.422591,0.515617 Z M 9.53981,4.3708 14.0368,11.5044 6.15908,8.49573 Z"
         inkscape:connector-curvature="0" />
      <path
         id="path27"
         stroke-miterlimit="8"
         d="M 110.5,18.5001 136,159.5"
         inkscape:connector-curvature="0"
         style="fill:none;fill-rule:evenodd;stroke:#00b050;stroke-width:1.33333004;stroke-miterlimit:8" />
      <text
         id="text29"
         transform="translate(110.475,154)"
         font-size="13"
         font-weight="400"
         style="font-weight:400;font-size:13px;font-family:'Cambria Math', 'Cambria Math_MSFontService', sans-serif;fill:#00b050">ISA</text>
      <path
         id="path31"
         d="m 122.39058,88.1137 -3.198,-17.9335 1.313,-0.234 3.197,17.9334 z m -4.933,-16.2698 1.221,-8.3438 4.03,7.4076 z"
         inkscape:connector-curvature="0" />
      <path
         id="path33"
         stroke-miterlimit="8"
         d="M 27.368,51.7421 46.9098,49.3475 58.3738,61.4923 38.832,63.887 Z"
         inkscape:connector-curvature="0"
         style="fill:#bfbfbf;fill-rule:evenodd;stroke:#7f7f7f;stroke-width:0.66666698;stroke-miterlimit:8" />
      <path
         id="path35"
         stroke-miterlimit="8"
         d="m 31.805,80.9401 7.3589,-16.881 18.8632,-2.3239 -7.3588,16.8809 z"
         inkscape:connector-curvature="0"
         style="fill:#bfbfbf;fill-rule:evenodd;stroke:#7f7f7f;stroke-width:0.66666698;stroke-miterlimit:8" />
      <path
         id="path37"
         stroke-miterlimit="8"
         d="M 31.7224,81.1252 19.824,68.6611 27.088,51.7691 38.9864,64.2332 Z"
         inkscape:connector-curvature="0"
         style="fill:#bfbfbf;fill-rule:evenodd;stroke:#7f7f7f;stroke-width:0.66666698;stroke-miterlimit:8" />
      <path
         id="path39"
         d="m 44.2078,93.1655 -2.1192,-1.6187 0.4047,-0.5298 2.1192,1.6187 z m -3.6042,-3.0251 -1.4918,-1.5432 -0.3205,-0.4862 0.5565,-0.3669 0.3035,0.4602 -0.0387,-0.0482 1.4703,1.5209 z m -2.9132,-3.6991 -0.3195,-0.4846 -0.6803,-2.0659 0.6332,-0.2085 0.6665,2.0237 -0.0383,-0.0792 0.295,0.4475 z m -1.2591,-4.6153 -0.0056,-1.5551 0.3368,-1.1597 0.6402,0.1859 -0.3234,1.1136 0.0133,-0.0941 0.0053,1.507 z m 0.9757,-4.6854 1.3318,-2.3103 0.5776,0.333 -1.3318,2.3103 z m 2.6537,-3.8974 1.6082,-1.7394 0.2634,-0.2182 0.4253,0.5134 -0.2463,0.2041 0.0321,-0.0304 -1.5932,1.7231 z m 3.4118,-3.2335 1.7585,-1.4568 0.3519,-0.2303 0.3651,0.5578 -0.3362,0.2201 0.0301,-0.0222 -1.7441,1.4448 z m 3.7838,-2.7824 2.2312,-1.4605 0.3651,0.5578 -2.2312,1.4605 z m 4.0041,-2.4445 2.3482,-1.2637 0.3159,0.5871 -2.3482,1.2636 z m 4.1321,-2.2139 2.4244,-1.1104 0.2776,0.6061 -2.4244,1.1104 z m 4.2428,-1.9433 2.1759,-0.9966 0.275,-0.1054 0.2386,0.6225 -0.2651,0.1016 0.0195,-0.0082 -2.1663,0.9922 z m 4.3184,-1.818 2.4899,-0.9545 0.2387,0.6225 -2.49,0.9545 z m 4.3574,-1.6705 1.0188,-0.3905 1.5041,-0.5109 0.2144,0.6313 -1.498,0.5087 0.0122,-0.0043 -1.0129,0.3882 z m 4.4167,-1.5445 2.525,-0.8576 0.2144,0.6313 -2.5251,0.8575 z m 4.4187,-1.5007 0.7774,-0.2641 1.7851,-0.5222 0.1872,0.6399 -1.7782,0.5202 0.0135,-0.0043 -0.7706,0.2617 z m 4.4821,-1.3478 2.5594,-0.7487 0.1872,0.6398 -2.5594,0.7487 z m 4.4789,-1.3103 1.4673,-0.4292 0.1872,0.6398 -1.4673,0.4293 z m -41.6973,41.4668 -0.2409,-4.8014 4.8211,7.5338 -8.9196,-0.6634 z"
         inkscape:connector-curvature="0"
         style="fill:#595959" />
      <path
         id="path41"
         d="m 57.954155,62.12629 -16.7926,-17.7088 0.9675,-0.9174 16.7926,17.7088 z m -17.3264,-15.3651 -3.5696,-7.6399 7.4397,3.9701 z"
         inkscape:connector-curvature="0" />
      <path
         id="path43"
         transform="matrix(-1,0,0,1,57.4893,61.5001)"
         d="M 0.613529,-0.260818 8.99464,19.4543 7.76758,19.9759 -0.613529,0.260818 Z M 10.3136,17.4448 10.9893,25.8504 5.40535,19.5313 Z"
         inkscape:connector-curvature="0" />
      <path
         id="path45"
         transform="matrix(-1,0,0,1,57.9949,61.5001)"
         d="M 0.0933599,-0.660097 28.9872,3.42646 28.8005,4.74666 -0.0933599,0.660097 Z M 27.9471,1.25945 35.4948,5.02016 27.2002,6.54023 Z"
         inkscape:connector-curvature="0" />
      <path
         id="path47"
         d="m 26.9687,33.1661 h 0.165 c 0.9945,0.0169 1.7382,0.2444 2.2312,0.6824 0.493,0.4379 0.7395,1.097 0.7395,1.9772 0,0.3513 -0.0497,0.7512 -0.1491,1.1998 -0.0995,0.4485 -0.1492,0.749 -0.1492,0.9013 0,0.292 0.1005,0.53 0.3015,0.7141 0.201,0.1841 0.5046,0.2825 0.9109,0.2952 v 0.5205 c -0.4063,0.0127 -0.7099,0.1111 -0.9109,0.2952 -0.201,0.1841 -0.3015,0.4221 -0.3015,0.7141 0,0.1523 0.0497,0.4528 0.1492,0.9013 0.0994,0.4486 0.1491,0.8485 0.1491,1.1998 0,0.9098 -0.2465,1.5837 -0.7395,2.0217 -0.493,0.438 -1.2367,0.6654 -2.2312,0.6824 h -0.165 v -0.4825 h 0.0952 c 0.6136,0 1.0939,-0.1597 1.4409,-0.4792 0.347,-0.3195 0.5205,-0.8622 0.5205,-1.6282 0,-0.2962 -0.0423,-0.6623 -0.1269,-1.0981 -0.0847,-0.4359 -0.127,-0.7469 -0.127,-0.9331 0,-0.3597 0.1058,-0.6549 0.3174,-0.8855 0.2116,-0.2307 0.4634,-0.401 0.7554,-0.511 v -0.1143 c -0.292,-0.11 -0.5438,-0.2803 -0.7554,-0.511 -0.2116,-0.2306 -0.3174,-0.5258 -0.3174,-0.8855 0,-0.1862 0.0423,-0.4972 0.127,-0.9331 0.0846,-0.4358 0.1269,-0.8019 0.1269,-1.0981 0,-0.7363 -0.1735,-1.2642 -0.5205,-1.5837 -0.347,-0.3195 -0.8273,-0.4793 -1.4409,-0.4793 h -0.0952 z m -8.5131,0 h 0.1651 v 0.4824 h -0.0953 c -0.6136,0 -1.0939,0.1598 -1.4409,0.4793 -0.347,0.3195 -0.5205,0.8452 -0.5205,1.5773 0,0.2963 0.0423,0.6623 0.127,1.0982 0.0846,0.4359 0.1269,0.7469 0.1269,0.9331 0,0.3597 -0.1058,0.6549 -0.3174,0.8855 -0.2116,0.2306 -0.4633,0.401 -0.7553,0.511 v 0.1142 c 0.292,0.1101 0.5437,0.2804 0.7553,0.511 0.2116,0.2307 0.3174,0.5258 0.3174,0.8855 0,0.1862 -0.0423,0.4973 -0.1269,0.9331 -0.0847,0.4359 -0.127,0.8019 -0.127,1.0982 0,0.7701 0.1735,1.315 0.5205,1.6345 0.347,0.3195 0.8273,0.4792 1.4409,0.4792 h 0.0953 v 0.4825 h -0.1651 c -0.9945,-0.017 -1.7382,-0.2444 -2.2312,-0.6824 -0.493,-0.438 -0.7395,-1.114 -0.7395,-2.0281 0,-0.3512 0.0497,-0.7511 0.1492,-1.1997 0.0994,-0.4486 0.1492,-0.749 0.1492,-0.9014 0,-0.292 -0.1006,-0.53 -0.3016,-0.7141 -0.201,-0.1841 -0.5046,-0.2824 -0.9109,-0.2951 v -0.5206 c 0.4063,-0.0126 0.7099,-0.111 0.9109,-0.2951 0.201,-0.1841 0.3016,-0.4221 0.3016,-0.7141 0,-0.1524 -0.0498,-0.4528 -0.1492,-0.9014 -0.0995,-0.4486 -0.1492,-0.8485 -0.1492,-1.1997 0,-0.876 0.2465,-1.533 0.7395,-1.9709 0.493,-0.438 1.2367,-0.6655 2.2312,-0.6824 z"
         inkscape:connector-curvature="0"
         style="fill-rule:evenodd" />
      <text
         id="text49"
         transform="translate(19.1278,43)"
         font-size="13"
         font-weight="400"
         style="font-weight:400;font-size:13px;font-family:'Cambria Math', 'Cambria Math_MSFontService', sans-serif">𝑏</text>
      <path
         id="path51"
         stroke-miterlimit="8"
         d="m 120.21432,87.642956 c 0,-1.3808 1.119,-2.5 2.5,-2.5 1.381,0 2.5,1.1192 2.5,2.5 0,1.3807 -1.119,2.5 -2.5,2.5 -1.381,0 -2.5,-1.1193 -2.5,-2.5 z"
         inkscape:connector-curvature="0"
         style="fill-rule:evenodd;stroke:#000000;stroke-width:1.33333004;stroke-miterlimit:8" />
      <path
         id="path53"
         d="m 122.864,88.0173 -18.872,-2.8594 0.199,-1.3183 18.872,2.8594 z m -17.854,-0.6822 -7.5099,-3.835 8.3089,-1.4382 z"
         inkscape:connector-curvature="0" />
      <path
         id="path55"
         transform="matrix(-1,0,0,1,122.847,86.5001)"
         d="M 0.39773,-0.535028 14.3945,9.86993 13.5991,10.94 -0.39773,0.535028 Z M 14.5177,7.46938 19.3471,14.3823 11.3358,11.7496 Z"
         inkscape:connector-curvature="0" />
      <text
         id="text57"
         transform="translate(125.956,45)"
         font-size="13"
         font-weight="400"
         style="font-weight:400;font-size:13px;font-family:'Cambria Math', 'Cambria Math_MSFontService', sans-serif;fill:#c00000">𝜔</text>
      <text
         id="text59"
         transform="translate(135.102,47)"
         font-size="9"
         font-weight="400"
         style="font-weight:400;font-size:9px;font-family:'Cambria Math', 'Cambria Math_MSFontService', sans-serif;fill:#c00000">𝜏</text>
      <text
         id="text61"
         transform="translate(91.1107,28)"
         font-size="13"
         font-weight="400"
         style="font-weight:400;font-size:13px;font-family:'Cambria Math', 'Cambria Math_MSFontService', sans-serif;fill:#c00000">𝑣</text>
      <text
         id="text63"
         transform="translate(98.3107,31)"
         font-size="9"
         font-weight="400"
         style="font-weight:400;font-size:9px;font-family:'Cambria Math', 'Cambria Math_MSFontService', sans-serif;fill:#c00000">𝑡</text>
      <path
         id="path65"
         d="m 114.803,46.8192 -2.789,-15.639 1.313,-0.234 2.788,15.6389 z m -4.524,-13.9753 1.221,-8.3438 4.03,7.4076 z"
         inkscape:connector-curvature="0"
         style="fill:#c00000" />
      <path
         id="path67"
         d="m 108.96899,35.445505 -2.90513,1.314875 -1.72852,1.672184 -0.40181,0.972439 0.15428,1.030676 0.64214,0.848325 1.0303,0.69487 2.81033,0.727438 3.48609,0.13219 3.83769,-0.379736 3.68964,-1.007958 2.99053,-1.380129 1.72664,-1.670414 0.40187,-0.972447 -0.15429,-1.030677 -0.64216,-0.848321 -1.07666,-0.726152 -1.60174,-0.149203 -0.12362,1.32757 1.43202,0.133412 -0.31096,-0.111068 0.84351,0.568895 -0.15881,-0.150357 0.47265,0.624409 -0.12777,-0.303662 0.10178,0.679925 0.0432,-0.353284 -0.27835,0.673628 0.15264,-0.224561 -1.54567,1.495296 0.18416,-0.126162 -2.83741,1.309479 0.10375,-0.0378 -3.5821,0.978574 0.11,-0.02032 -3.73645,0.369718 0.0909,-0.0028 -3.36853,-0.127732 0.14179,0.0208 -2.62974,-0.680692 0.2057,0.09268 -0.84351,-0.568895 0.15879,0.15036 -0.47264,-0.62441 0.12776,0.303662 -0.10177,-0.679925 -0.0432,0.353285 0.27834,-0.673627 -0.15261,0.224556 1.54567,-1.495296 -0.18864,0.128208 2.79968,-1.267158 z m 13.72332,-2.669596 -8.1745,2.070851 7.78209,3.248028 z"
         inkscape:connector-curvature="0"
         style="fill:#c00000" />
      <path
         id="path69"
         stroke-miterlimit="10"
         d="M 121.92858,87.39296 86.678472,113.1429"
         inkscape:connector-curvature="0"
         style="fill:none;fill-rule:evenodd;stroke:#000000;stroke-width:0.33333299;stroke-linejoin:round;stroke-miterlimit:10;stroke-dasharray:0.333333, 0.333333" />
      <text
         id="text71"
         transform="translate(61.2,109)"
         font-size="13"
         font-weight="400"
         style="font-weight:400;font-size:13px;font-family:'Cambria Math', 'Cambria Math_MSFontService', sans-serif;fill:#c00000">𝜔</text>
      <text
         id="text73"
         transform="translate(70.3467,112)"
         font-size="9"
         font-weight="400"
         style="font-weight:400;font-size:9px;font-family:'Cambria Math', 'Cambria Math_MSFontService', sans-serif;fill:#c00000">𝜅</text>
      <text
         id="text75"
         transform="translate(70.2634,131)"
         font-size="13"
         font-weight="400"
         style="font-weight:400;font-size:13px;font-family:'Cambria Math', 'Cambria Math_MSFontService', sans-serif;fill:#c00000">𝑣</text>
      <text
         id="text77"
         transform="translate(77.4634,133)"
         font-size="9"
         font-weight="400"
         style="font-weight:400;font-size:9px;font-family:'Cambria Math', 'Cambria Math_MSFontService', sans-serif;fill:#c00000">𝑏</text>
      <text
         id="text79"
         transform="translate(89.7471,75)"
         font-size="13"
         font-weight="400"
         style="font-weight:400;font-size:13px;font-family:'Cambria Math', 'Cambria Math_MSFontService', sans-serif">𝒆</text>
      <text
         id="text81"
         transform="translate(97.0804,78)"
         font-size="9"
         font-weight="400"
         style="font-weight:400;font-size:9px;font-family:'Cambria Math', 'Cambria Math_MSFontService', sans-serif">𝑛</text>
      <text
         id="text83"
         transform="translate(125.076,67)"
         font-size="13"
         font-weight="400"
         style="font-weight:400;font-size:13px;font-family:'Cambria Math', 'Cambria Math_MSFontService', sans-serif">𝒆</text>
      <text
         id="text85"
         transform="translate(132.409,70)"
         font-size="9"
         font-weight="400"
         style="font-weight:400;font-size:9px;font-family:'Cambria Math', 'Cambria Math_MSFontService', sans-serif">𝑡</text>
      <text
         id="text87"
         transform="translate(88.4212,96)"
         font-size="13"
         font-weight="400"
         style="font-weight:400;font-size:13px;font-family:'Cambria Math', 'Cambria Math_MSFontService', sans-serif">𝒆</text>
      <text
         id="text89"
         transform="translate(95.7545,99)"
         font-size="9"
         font-weight="400"
         style="font-weight:400;font-size:9px;font-family:'Cambria Math', 'Cambria Math_MSFontService', sans-serif">𝑏</text>
      <path
         id="path91"
         transform="matrix(-1,0,0,1,95.75,106.5)"
         d="M 0.401002,-0.53258 16.3252,11.4574 15.5232,12.5226 -0.401002,0.53258 Z M 16.463,9.05765 21.25,16 13.255,13.3183 Z"
         inkscape:connector-curvature="0"
         style="fill:#c00000" />
      <path
         id="path93"
         transform="matrix(-0.571606,-0.820528,-0.820528,0.571606,93.7531,117.656)"
         d="M 4.96198,7.29259 1.8942,6.42227 -0.062823,5.0244 -0.604167,4.12216 V 3.08 L -0.0946883,2.14596 0.821395,1.30622 3.49307,0.170755 l 3.42811,-0.646814 3.85162,-0.19258 3.7982,0.450638 3.1619,0.922203 1.9549,1.396398 0.5414,0.90224 V 4.045 L 19.7197,4.97904 18.7788,5.84155 16.0382,6.70307 15.6384,5.4311 18.2376,4.61402 17.987,4.75856 18.737,4.07106 18.6022,4.24327 18.9772,3.55577 18.8958,3.875 V 3.1875 l 0.095,0.343 -0.375,-0.625 0.1842,0.19949 -1.75,-1.25 0.2008,0.09751 -3,-0.875 0.1082,0.02202 -3.6875,-0.437497 0.1118,0.003812 -3.75001,0.1875 0.09032,-0.010727 -3.3125,0.625002 0.13715,-0.04156 -2.5,1.0625 L 1.63798,2.36644 0.887983,3.05394 1.02276,2.88173 0.647764,3.56923 0.729167,3.25 V 3.9375 L 0.634162,3.5945 1.00916,4.2195 0.824992,4.02001 2.57499,5.27001 2.36945,5.17114 5.32588,6.00987 Z M 17.5571,8.50317 9.24732,7.06866 16.7559,3.23037 Z"
         inkscape:connector-curvature="0"
         style="fill:#c00000" />
    </g>
  </g>
</svg>
